REM DIRINDEX 1\5,1\2\6,1\2\7,1\3\8,1\3\9,1\4\10,1\4\11,1\4\12
REM DIRNAME cjc026,folder01,folder02,folder03,folder04,folder05,folder06,folder07,folder08,folder09,folder10,folder11
TITLE ""
FILE "EJE_DB3000_5th_6C_31.mp3" MP3
  TRACK 01 AUDIO
    TITLE "0:"
    INDEX 01 00:00:00
  TRACK 02 AUDIO
    TITLE "10:cjc026_11352"
    INDEX 01 00:00:10
  TRACK 03 AUDIO
    TITLE "0:"
    INDEX 01 00:01:30
  TRACK 04 AUDIO
    TITLE "11:cjc026_11353"
    INDEX 01 00:01:68
  TRACK 05 AUDIO
    TITLE "0:"
    INDEX 01 00:03:26
  TRACK 06 AUDIO
    TITLE "12:cjc026_11354"
    INDEX 01 00:03:63
  TRACK 07 AUDIO
    TITLE "0:"
    INDEX 01 00:05:08
  TRACK 08 AUDIO
    TITLE "10:cjc026_11355"
    INDEX 01 00:05:46
  TRACK 09 AUDIO
    TITLE "0:"
    INDEX 01 00:06:60
  TRACK 10 AUDIO
    TITLE "11:cjc026_11356"
    INDEX 01 00:07:20
  TRACK 11 AUDIO
    TITLE "0:"
    INDEX 01 00:09:72
  TRACK 12 AUDIO
    TITLE "12:cjc026_11357"
    INDEX 01 00:10:35
  TRACK 13 AUDIO
    TITLE "0:"
    INDEX 01 00:11:52
  TRACK 14 AUDIO
    TITLE "10:cjc026_11358"
    INDEX 01 00:12:12
  TRACK 15 AUDIO
    TITLE "0:"
    INDEX 01 00:13:32
  TRACK 16 AUDIO
    TITLE "11:cjc026_11359"
    INDEX 01 00:13:67
  TRACK 17 AUDIO
    TITLE "0:"
    INDEX 01 00:15:36
  TRACK 18 AUDIO
    TITLE "12:cjc026_11360"
    INDEX 01 00:15:73
  TRACK 19 AUDIO
    TITLE "0:"
    INDEX 01 00:17:18
  TRACK 20 AUDIO
    TITLE "10:cjc026_11361"
    INDEX 01 00:17:53
  TRACK 21 AUDIO
    TITLE "0:"
    INDEX 01 00:18:64
  TRACK 22 AUDIO
    TITLE "11:cjc026_11362"
    INDEX 01 00:19:27
  TRACK 23 AUDIO
    TITLE "0:"
    INDEX 01 00:20:52
  TRACK 24 AUDIO
    TITLE "12:cjc026_11363"
    INDEX 01 00:21:12
  TRACK 25 AUDIO
    TITLE "0:"
    INDEX 01 00:22:26
  TRACK 26 AUDIO
    TITLE "10:cjc026_11364"
    INDEX 01 00:22:61
  TRACK 27 AUDIO
    TITLE "0:"
    INDEX 01 00:23:67
  TRACK 28 AUDIO
    TITLE "11:cjc026_11365"
    INDEX 01 00:24:30
  TRACK 29 AUDIO
    TITLE "0:"
    INDEX 01 00:26:02
  TRACK 30 AUDIO
    TITLE "12:cjc026_11366"
    INDEX 01 00:26:39
  TRACK 31 AUDIO
    TITLE "0:"
    INDEX 01 00:27:45
  TRACK 32 AUDIO
    TITLE "10:cjc026_11367"
    INDEX 01 00:28:08
  TRACK 33 AUDIO
    TITLE "0:"
    INDEX 01 00:29:39
  TRACK 34 AUDIO
    TITLE "11:cjc026_11368"
    INDEX 01 00:29:74
  TRACK 35 AUDIO
    TITLE "0:"
    INDEX 01 00:31:40
  TRACK 36 AUDIO
    TITLE "12:cjc026_11369"
    INDEX 01 00:32:00
  TRACK 37 AUDIO
    TITLE "0:"
    INDEX 01 00:33:30
  TRACK 38 AUDIO
    TITLE "10:cjc026_11370"
    INDEX 01 00:33:65
  TRACK 39 AUDIO
    TITLE "0:"
    INDEX 01 00:35:23
  TRACK 40 AUDIO
    TITLE "11:cjc026_11371"
    INDEX 01 00:35:58
  TRACK 41 AUDIO
    TITLE "0:"
    INDEX 01 00:37:59
  TRACK 42 AUDIO
    TITLE "12:cjc026_11372"
    INDEX 01 00:38:17
  TRACK 43 AUDIO
    TITLE "0:"
    INDEX 01 00:39:50
  TRACK 44 AUDIO
    TITLE "10:cjc026_11373"
    INDEX 01 00:40:10
  TRACK 45 AUDIO
    TITLE "0:"
    INDEX 01 00:41:24
  TRACK 46 AUDIO
    TITLE "11:cjc026_11374"
    INDEX 01 00:41:59
  TRACK 47 AUDIO
    TITLE "0:"
    INDEX 01 00:43:25
  TRACK 48 AUDIO
    TITLE "12:cjc026_11375"
    INDEX 01 00:43:63
  TRACK 49 AUDIO
    TITLE "0:"
    INDEX 01 00:45:02
  TRACK 50 AUDIO
    TITLE "10:cjc026_11376"
    INDEX 01 00:45:37
  TRACK 51 AUDIO
    TITLE "0:"
    INDEX 01 00:46:57
  TRACK 52 AUDIO
    TITLE "11:cjc026_11377"
    INDEX 01 00:47:20
  TRACK 53 AUDIO
    TITLE "0:"
    INDEX 01 00:48:50
  TRACK 54 AUDIO
    TITLE "12:cjc026_11378"
    INDEX 01 00:49:13
  TRACK 55 AUDIO
    TITLE "0:"
    INDEX 01 00:50:32
  TRACK 56 AUDIO
    TITLE "10:cjc026_11379"
    INDEX 01 00:50:67
  TRACK 57 AUDIO
    TITLE "0:"
    INDEX 01 00:52:15
  TRACK 58 AUDIO
    TITLE "11:cjc026_11380"
    INDEX 01 00:52:52
  TRACK 59 AUDIO
    TITLE "0:"
    INDEX 01 00:54:18
  TRACK 60 AUDIO
    TITLE "12:cjc026_11381"
    INDEX 01 00:54:54
  TRACK 61 AUDIO
    TITLE "0:"
    INDEX 01 00:56:01
  TRACK 62 AUDIO
    TITLE "10:cjc026_11382"
    INDEX 01 00:56:39
  TRACK 63 AUDIO
    TITLE "0:"
    INDEX 01 00:57:55
  TRACK 64 AUDIO
    TITLE "11:cjc026_11383"
    INDEX 01 00:58:18
  TRACK 65 AUDIO
    TITLE "0:"
    INDEX 01 00:59:62
  TRACK 66 AUDIO
    TITLE "12:cjc026_11384"
    INDEX 01 01:00:22
  TRACK 67 AUDIO
    TITLE "0:"
    INDEX 01 01:01:42
  TRACK 68 AUDIO
    TITLE "10:cjc026_11385"
    INDEX 01 01:02:02
  TRACK 69 AUDIO
    TITLE "0:"
    INDEX 01 01:03:35
  TRACK 70 AUDIO
    TITLE "11:cjc026_11386"
    INDEX 01 01:03:70
  TRACK 71 AUDIO
    TITLE "0:"
    INDEX 01 01:05:44
  TRACK 72 AUDIO
    TITLE "12:cjc026_11387"
    INDEX 01 01:06:01
  TRACK 73 AUDIO
    TITLE "0:"
    INDEX 01 01:07:34
